<svg width="197" height="197" viewBox="0 0 197 197" fill="none" xmlns="http://www.w3.org/2000/svg">
<rect width="197" height="197" rx="98.5001" fill="#F9F9F9"/>
<path d="M130.243 149.82C132.613 153.651 131.444 158.727 127.358 160.625C114.802 166.458 100.706 168.376 86.9349 166.017C70.4702 163.196 55.6034 154.457 45.1315 141.442C34.6595 128.428 29.304 112.035 30.0726 95.3485C30.8412 78.6617 37.6807 62.8307 49.3047 50.8339C60.9287 38.837 76.5358 31.5011 93.19 30.2062C109.844 28.9113 126.398 33.7467 139.736 43.8026C153.075 53.8586 162.279 68.442 165.618 84.8095C168.41 98.4997 166.938 112.649 161.505 125.383C159.737 129.526 154.7 130.855 150.796 128.608C146.892 126.36 145.617 121.387 147.229 117.18C150.765 107.956 151.631 97.8589 149.634 88.0699C147.09 75.6003 140.078 64.4898 129.916 56.8287C119.754 49.1675 107.143 45.4837 94.4546 46.4703C81.7665 47.4568 69.8762 53.0457 61.0205 62.1855C52.1647 71.3253 46.954 83.3861 46.3684 96.099C45.7829 108.812 49.863 121.301 57.8411 131.216C65.8192 141.131 77.1454 147.789 89.6891 149.938C99.5362 151.625 109.601 150.441 118.709 146.615C122.862 144.871 127.874 145.989 130.243 149.82Z" fill="#050505"/>
<path d="M134.577 134.456C137.788 130.645 143.481 130.16 147.291 133.371L161.868 145.656C165.678 148.867 166.164 154.559 162.952 158.369C159.741 162.18 154.049 162.665 150.239 159.454L135.662 147.169C131.852 143.958 131.366 138.266 134.577 134.456Z" fill="#050505"/>
</svg>
