<svg width="808" height="155" viewBox="0 0 808 155" fill="none" xmlns="http://www.w3.org/2000/svg">
<path d="M124 154.2L108.4 138.8C102.933 142.933 96.8333 146.167 90.1 148.5C83.4333 150.833 76.4 152 69 152C59.5333 152 50.6333 150.133 42.3 146.4C33.9667 142.6 26.6333 137.4 20.3 130.8C13.9667 124.133 9 116.4 5.4 107.6C1.8 98.8 5.66244e-07 89.4 5.66244e-07 79.4C5.66244e-07 69.4 1.8 60.0333 5.4 51.3C9 42.5 13.9667 34.7667 20.3 28.1C26.6333 21.4333 33.9667 16.2333 42.3 12.5C50.6333 8.69999 59.5333 6.8 69 6.8C78.5333 6.8 87.4667 8.69999 95.8 12.5C104.133 16.2333 111.467 21.4333 117.8 28.1C124.133 34.7667 129.067 42.5 132.6 51.3C136.2 60.0333 138 69.4 138 79.4C138 87.2 136.867 94.6333 134.6 101.7C132.333 108.7 129.233 115.167 125.3 121.1L141.2 137L124 154.2ZM69 127.6C72.8667 127.6 76.6667 127.033 80.4 125.9C84.1333 124.7 87.5667 123.033 90.7 120.9L78 108.2L95.2 90.9L107.1 102.9C109.233 99.4333 110.833 95.7 111.9 91.7C113.033 87.7 113.6 83.6 113.6 79.4C113.6 72.7333 112.433 66.5 110.1 60.7C107.767 54.9 104.533 49.8 100.4 45.4C96.3333 40.9333 91.6 37.4667 86.2 35C80.8667 32.4667 75.1333 31.2 69 31.2C62.8667 31.2 57.1 32.4667 51.7 35C46.3 37.5333 41.5333 41.0333 37.4 45.5C33.3333 49.9 30.1333 55 27.8 60.8C25.5333 66.6 24.4 72.8 24.4 79.4C24.4 86 25.5667 92.2333 27.9 98.1C30.2333 103.9 33.4333 109.033 37.5 113.5C41.6333 117.9 46.3667 121.367 51.7 123.9C57.1 126.367 62.8667 127.6 69 127.6ZM159.664 50H184.064V150H159.664V50ZM172.064 37.1C168.464 37.1 165.431 35.9333 162.964 33.6C160.497 31.2 159.264 28.2 159.264 24.6C159.264 21.0667 160.497 18.1 162.964 15.7C165.431 13.3 168.431 12.1 171.964 12.1C175.497 12.1 178.464 13.3 180.864 15.7C183.331 18.1 184.564 21.0667 184.564 24.6C184.564 28.2 183.364 31.2 180.964 33.6C178.564 35.9333 175.597 37.1 172.064 37.1ZM297.792 150H269.692L246.892 110.7L232.892 127.4V150H208.492V-1.19209e-05H232.892V89.5L265.992 50H297.892L263.592 90.9L297.792 150ZM315.523 150V9.99999H341.923L401.023 105.9V9.99999H425.423V150H399.123L339.923 54.1V150H315.523ZM491.945 152.6C482.745 152.6 474.345 150.233 466.745 145.5C459.212 140.767 453.179 134.433 448.645 126.5C444.179 118.5 441.945 109.667 441.945 100C441.945 92.6667 443.245 85.8333 445.845 79.5C448.445 73.1 452.012 67.5 456.545 62.7C461.145 57.8333 466.479 54.0333 472.545 51.3C478.612 48.5667 485.079 47.2 491.945 47.2C501.145 47.2 509.512 49.5667 517.045 54.3C524.645 59.0333 530.679 65.4 535.145 73.4C539.679 81.4 541.945 90.2667 541.945 100C541.945 107.267 540.645 114.067 538.045 120.4C535.445 126.733 531.845 132.333 527.245 137.2C522.712 142 517.412 145.767 511.345 148.5C505.345 151.233 498.879 152.6 491.945 152.6ZM491.945 128.2C496.812 128.2 501.179 126.9 505.045 124.3C508.912 121.7 511.945 118.267 514.145 114C516.412 109.733 517.545 105.067 517.545 100C517.545 94.8 516.379 90.0667 514.045 85.8C511.779 81.4667 508.679 78.0333 504.745 75.5C500.879 72.9 496.612 71.6 491.945 71.6C487.145 71.6 482.812 72.9 478.945 75.5C475.079 78.1 472.012 81.5667 469.745 85.9C467.479 90.2333 466.345 94.9333 466.345 100C466.345 105.267 467.512 110.033 469.845 114.3C472.179 118.567 475.279 121.967 479.145 124.5C483.079 126.967 487.345 128.2 491.945 128.2ZM611.116 74.4H591.716V150H567.316V74.4H552.516V50H567.316V18.6H591.716V50H611.116V74.4ZM670.852 152.6C661.652 152.6 653.252 150.233 645.652 145.5C638.118 140.767 632.085 134.4 627.552 126.4C623.085 118.4 620.852 109.567 620.852 99.9C620.852 92.6333 622.152 85.8333 624.752 79.5C627.352 73.1 630.918 67.5 635.452 62.7C640.052 57.8333 645.385 54.0333 651.452 51.3C657.518 48.5667 663.985 47.2 670.852 47.2C678.652 47.2 685.785 48.8667 692.252 52.2C698.785 55.4667 704.318 59.9667 708.852 65.7C713.385 71.4333 716.685 77.9667 718.752 85.3C720.818 92.6333 721.285 100.3 720.152 108.3H647.052C647.985 112.033 649.518 115.4 651.652 118.4C653.785 121.333 656.485 123.7 659.752 125.5C663.018 127.233 666.718 128.133 670.852 128.2C675.118 128.267 678.985 127.267 682.452 125.2C685.985 123.067 688.918 120.2 691.252 116.6L716.152 122.4C712.085 131.267 706.018 138.533 697.952 144.2C689.885 149.8 680.852 152.6 670.852 152.6ZM646.252 90H695.452C694.718 86 693.152 82.4 690.752 79.2C688.418 75.9333 685.518 73.3333 682.052 71.4C678.585 69.4667 674.852 68.5 670.852 68.5C666.852 68.5 663.152 69.4667 659.752 71.4C656.352 73.2667 653.452 75.8333 651.052 79.1C648.718 82.3 647.118 85.9333 646.252 90ZM766.703 151.8C761.503 151.467 756.47 150.433 751.603 148.7C746.803 146.9 742.536 144.467 738.803 141.4C735.07 138.333 732.203 134.667 730.203 130.4L750.803 121.6C751.603 122.933 752.903 124.367 754.703 125.9C756.503 127.367 758.636 128.6 761.103 129.6C763.636 130.6 766.403 131.1 769.403 131.1C771.936 131.1 774.336 130.767 776.603 130.1C778.936 129.367 780.803 128.267 782.203 126.8C783.67 125.333 784.403 123.433 784.403 121.1C784.403 118.633 783.536 116.733 781.803 115.4C780.136 114 778.003 112.967 775.403 112.3C772.87 111.567 770.403 110.9 768.003 110.3C761.67 109.033 755.77 107.067 750.303 104.4C744.903 101.733 740.536 98.3 737.203 94.1C733.936 89.8333 732.303 84.7 732.303 78.7C732.303 72.1 734.036 66.4 737.503 61.6C741.036 56.8 745.603 53.1 751.203 50.5C756.87 47.9 762.97 46.6 769.503 46.6C777.436 46.6 784.703 48.2667 791.303 51.6C797.97 54.8667 803.236 59.5 807.103 65.5L787.803 76.9C786.87 75.3 785.57 73.8333 783.903 72.5C782.236 71.1 780.336 69.9667 778.203 69.1C776.07 68.1667 773.836 67.6333 771.503 67.5C768.503 67.3667 765.77 67.6333 763.303 68.3C760.836 68.9667 758.836 70.1 757.303 71.7C755.836 73.3 755.103 75.4333 755.103 78.1C755.103 80.6333 756.103 82.5333 758.103 83.8C760.103 85 762.503 85.9333 765.303 86.6C768.17 87.2667 770.903 88 773.503 88.8C779.37 90.7333 784.87 93.1 790.003 95.9C795.203 98.7 799.37 102.133 802.503 106.2C805.636 110.267 807.136 115.133 807.003 120.8C807.003 127.267 805.07 132.933 801.203 137.8C797.336 142.6 792.336 146.267 786.203 148.8C780.136 151.333 773.636 152.333 766.703 151.8Z" fill="#050505"/>
</svg>
